<?xml version="1.0" encoding="utf-8"?>
<!-- Generator: Adobe Illustrator 26.0.2, SVG Export Plug-In . SVG Version: 6.00 Build 0)  -->
<svg version="1.1" id="Layer_1" xmlns="http://www.w3.org/2000/svg" xmlns:xlink="http://www.w3.org/1999/xlink" x="0px" y="0px"
	 viewBox="0 0 40 40" style="enable-background:new 0 0 40 40;" xml:space="preserve">
<style type="text/css">
	.st0{fill:#AB7E67;stroke:#AB7E67;stroke-width:1.5;}
	.st1{fill:#FFF8ED;}
</style>
<path class="st0" d="M5,0.75h30c2.35,0,4.25,1.9,4.25,4.25v30c0,2.35-1.9,4.25-4.25,4.25H5c-2.35,0-4.25-1.9-4.25-4.25V5
	C0.75,2.65,2.65,0.75,5,0.75z"/>
<path class="st1" d="M8.48,28.99L28.99,8.48c0.78-0.78,2.05-0.78,2.83,0l0,0c0.78,0.78,0.78,2.05,0,2.83L11.31,31.81
	c-0.78,0.78-2.05,0.78-2.83,0l0,0C7.7,31.03,7.7,29.77,8.48,28.99z"/>
<path class="st1" d="M28.99,32.52L8.48,12.01c-0.78-0.78-0.78-2.05,0-2.83l0,0c0.78-0.78,2.05-0.78,2.83,0l20.51,20.51
	c0.78,0.78,0.78,2.05,0,2.83l0,0C31.03,33.3,29.77,33.3,28.99,32.52z"/>
</svg>
