<?xml version="1.0" encoding="utf-8"?>
<!-- Generator: Adobe Illustrator 26.0.2, SVG Export Plug-In . SVG Version: 6.00 Build 0)  -->
<svg version="1.1" id="Layer_1" xmlns="http://www.w3.org/2000/svg" xmlns:xlink="http://www.w3.org/1999/xlink" x="0px" y="0px"
	 viewBox="0 0 40 40" style="enable-background:new 0 0 40 40;" xml:space="preserve">
<style type="text/css">
	.st0{display:none;}
	.st1{display:inline;fill:#AB7E67;stroke:#AB7E67;stroke-width:1.5;}
	.st2{display:inline;fill:#FFF8ED;}
	.st3{display:inline;fill:#AB7E67;}
	.st4{display:inline;fill:#FFF8ED;stroke:#4E241D;stroke-width:1.5;}
	.st5{display:inline;fill:#4E241D;}
	.st6{fill:#AB7E67;stroke:#AB7E67;stroke-width:1.5;}
	.st7{fill:#FFF8ED;stroke:#FFF8ED;}
	.st8{fill:none;stroke:#FFF8ED;stroke-linecap:round;}
</style>
<g class="st0">
	<path class="st1" d="M5,0.75h30c2.35,0,4.25,1.9,4.25,4.25v30c0,2.35-1.9,4.25-4.25,4.25H5c-2.35,0-4.25-1.9-4.25-4.25V5
		C0.75,2.65,2.65,0.75,5,0.75z"/>
	<path class="st2" d="M19.16,10c0.35-0.24,0.81-0.24,1.15,0l11.62,8.18c0.8,0.56,0.4,1.82-0.58,1.82H8.11
		c-0.98,0-1.37-1.26-0.58-1.82L19.16,10z"/>
	<path class="st2" d="M11.73,15.93c0-0.55,0.45-1,1-1h14c0.55,0,1,0.45,1,1v14c0,0.55-0.45,1-1,1h-14c-0.55,0-1-0.45-1-1V15.93z"/>
	<path class="st3" d="M16.53,25c0-0.55,0.45-1,1-1h4.4c0.55,0,1,0.45,1,1v5.93h-6.4V25z"/>
</g>
<g class="st0">
	<path class="st4" d="M5,0.75h30c2.35,0,4.25,1.9,4.25,4.25v30c0,2.35-1.9,4.25-4.25,4.25H5c-2.35,0-4.25-1.9-4.25-4.25V5
		C0.75,2.65,2.65,0.75,5,0.75z"/>
	<path class="st5" d="M19.16,10c0.35-0.24,0.81-0.24,1.15,0l11.62,8.18c0.8,0.56,0.4,1.82-0.58,1.82H8.11
		c-0.98,0-1.37-1.26-0.58-1.82L19.16,10z"/>
	<path class="st5" d="M11.73,15.93c0-0.55,0.45-1,1-1h14c0.55,0,1,0.45,1,1v14c0,0.55-0.45,1-1,1h-14c-0.55,0-1-0.45-1-1V15.93z"/>
	<path class="st2" d="M16.53,25c0-0.55,0.45-1,1-1h4.4c0.55,0,1,0.45,1,1v5.93h-6.4V25z"/>
</g>
<g class="st0">
	<path class="st1" d="M5,0.75h30c2.35,0,4.25,1.9,4.25,4.25v30c0,2.35-1.9,4.25-4.25,4.25H5c-2.35,0-4.25-1.9-4.25-4.25V5
		C0.75,2.65,2.65,0.75,5,0.75z"/>
	<path class="st2" d="M30.4,29.6c0-1.37-0.27-2.72-0.79-3.98c-0.52-1.26-1.29-2.41-2.25-3.37c-0.97-0.97-2.11-1.73-3.37-2.25
		c-1.26-0.52-2.61-0.79-3.98-0.79c-1.37,0-2.72,0.27-3.98,0.79c-1.26,0.52-2.41,1.29-3.37,2.25c-0.97,0.97-1.73,2.11-2.25,3.37
		C9.87,26.88,9.6,28.23,9.6,29.6H20H30.4z"/>
	<ellipse class="st2" cx="20" cy="12" rx="4" ry="4"/>
</g>
<g class="st0">
	<path class="st4" d="M5,0.75h30c2.35,0,4.25,1.9,4.25,4.25v30c0,2.35-1.9,4.25-4.25,4.25H5c-2.35,0-4.25-1.9-4.25-4.25V5
		C0.75,2.65,2.65,0.75,5,0.75z"/>
	<path class="st5" d="M30.4,29.6c0-1.37-0.27-2.72-0.79-3.98c-0.52-1.26-1.29-2.41-2.25-3.37c-0.97-0.97-2.11-1.73-3.37-2.25
		c-1.26-0.52-2.61-0.79-3.98-0.79c-1.37,0-2.72,0.27-3.98,0.79c-1.26,0.52-2.41,1.29-3.37,2.25c-0.97,0.97-1.73,2.11-2.25,3.37
		C9.87,26.88,9.6,28.23,9.6,29.6H20H30.4z"/>
	<ellipse class="st5" cx="20" cy="12" rx="4" ry="4"/>
</g>
<g class="st0">
	<path class="st1" d="M5,0.75h30c2.35,0,4.25,1.9,4.25,4.25v30c0,2.35-1.9,4.25-4.25,4.25H5c-2.35,0-4.25-1.9-4.25-4.25V5
		C0.75,2.65,2.65,0.75,5,0.75z"/>
	<path class="st2" d="M15.87,10.67h7.73c1.1,0,2,0.9,2,2v4c0,1.1-0.9,2-2,2h-7.73c-1.1,0-2-0.9-2-2v-4
		C13.87,11.56,14.76,10.67,15.87,10.67z"/>
	<path class="st3" d="M15.47,13.27c0-0.55,0.45-1,1-1H23c0.55,0,1,0.45,1,1v4.87h-8.53V13.27z"/>
	<path class="st2" d="M11.63,17.07h16.2c0.83,0,1.5,0.67,1.5,1.5v9.27c0,0.83-0.67,1.5-1.5,1.5h-16.2c-0.83,0-1.5-0.67-1.5-1.5
		v-9.27C10.13,17.74,10.8,17.07,11.63,17.07z"/>
</g>
<g class="st0">
	<path class="st4" d="M5,0.75h30c2.35,0,4.25,1.9,4.25,4.25v30c0,2.35-1.9,4.25-4.25,4.25H5c-2.35,0-4.25-1.9-4.25-4.25V5
		C0.75,2.65,2.65,0.75,5,0.75z"/>
	<path class="st5" d="M15.87,10.67h7.73c1.1,0,2,0.9,2,2v4c0,1.1-0.9,2-2,2h-7.73c-1.1,0-2-0.9-2-2v-4
		C13.87,11.56,14.76,10.67,15.87,10.67z"/>
	<path class="st2" d="M15.47,13.27c0-0.55,0.45-1,1-1H23c0.55,0,1,0.45,1,1v4.87h-8.53V13.27z"/>
	<path class="st5" d="M11.63,17.07h16.2c0.83,0,1.5,0.67,1.5,1.5v9.27c0,0.83-0.67,1.5-1.5,1.5h-16.2c-0.83,0-1.5-0.67-1.5-1.5
		v-9.27C10.13,17.74,10.8,17.07,11.63,17.07z"/>
</g>
<g class="st0">
	<path class="st1" d="M5,0.75h30c2.35,0,4.25,1.9,4.25,4.25v30c0,2.35-1.9,4.25-4.25,4.25H5c-2.35,0-4.25-1.9-4.25-4.25V5
		C0.75,2.65,2.65,0.75,5,0.75z"/>
	<path class="st2" d="M26.32,10.13l5.41-1.64l-1.64,5.41L13.12,30.88c-1.04,1.04-2.73,1.04-3.77,0l0,0c-1.04-1.04-1.04-2.73,0-3.77
		L26.32,10.13z"/>
	
		<rect x="12.4" y="24.01" transform="matrix(0.7071 -0.7071 0.7071 0.7071 -15.4361 17.1517)" class="st3" width="1.17" height="6.4"/>
</g>
<g class="st0">
	<path class="st4" d="M5,0.75h30c2.35,0,4.25,1.9,4.25,4.25v30c0,2.35-1.9,4.25-4.25,4.25H5c-2.35,0-4.25-1.9-4.25-4.25V5
		C0.75,2.65,2.65,0.75,5,0.75z"/>
	<path class="st5" d="M26.32,10.13l5.41-1.64l-1.64,5.41L13.12,30.88c-1.04,1.04-2.73,1.04-3.77,0l0,0c-1.04-1.04-1.04-2.73,0-3.77
		L26.32,10.13z"/>
	
		<rect x="12.4" y="24.01" transform="matrix(0.7071 -0.7071 0.7071 0.7071 -15.4361 17.1517)" class="st2" width="1.17" height="6.4"/>
</g>
<g>
	<path class="st6" d="M5,0.75h30c2.35,0,4.25,1.9,4.25,4.25v30c0,2.35-1.9,4.25-4.25,4.25H5c-2.35,0-4.25-1.9-4.25-4.25V5
		C0.75,2.65,2.65,0.75,5,0.75z"/>
	<path class="st7" d="M31.99,13.76L31.99,13.76c0.85,0.85,0.85,2.22,0,3.06L16.91,31.91c-0.85,0.85-2.22,0.85-3.06,0l0,0
		c-0.85-0.85-0.85-2.22,0-3.06l15.08-15.08C29.78,12.91,31.15,12.91,31.99,13.76z"/>
	<path class="st7" d="M29.92,11.68l1.34,1.34l-4.2,4.2l-1.34-1.34c-1.16-1.16-1.16-3.04,0-4.2C26.88,10.52,28.76,10.52,29.92,11.68z
		"/>
	<path class="st7" d="M15.97,25.64l1.34,1.34l-4.2,4.2l-1.34-1.34c-1.16-1.16-1.16-3.04,0-4.2C12.93,24.48,14.81,24.48,15.97,25.64z
		"/>
	<path class="st8" d="M18.55,14.42c-0.45-0.23-0.95-0.31-1.45-0.23c-0.5,0.08-0.95,0.31-1.31,0.67c-0.36,0.35-0.59,0.81-0.67,1.31
		c-0.08,0.5,0,1,0.23,1.45"/>
	<path class="st8" d="M20.2,10.94c-1.16-0.59-2.48-0.8-3.76-0.6s-2.48,0.81-3.4,1.73c-0.92,0.92-1.53,2.11-1.74,3.39
		c-0.21,1.29,0,2.6,0.59,3.77"/>
</g>
</svg>
