<?xml version="1.0" encoding="utf-8"?>
<!-- Generator: Adobe Illustrator 26.0.2, SVG Export Plug-In . SVG Version: 6.00 Build 0)  -->
<svg version="1.1" id="Layer_1" xmlns="http://www.w3.org/2000/svg" xmlns:xlink="http://www.w3.org/1999/xlink" x="0px" y="0px"
	 viewBox="0 0 40 40" style="enable-background:new 0 0 40 40;" xml:space="preserve">
<style type="text/css">
	.st0{display:none;}
	.st1{display:inline;fill:#AB7E67;stroke:#AB7E67;stroke-width:1.5;}
	.st2{display:inline;fill:#FFF8ED;}
	.st3{display:inline;fill:#AB7E67;}
	.st4{display:inline;fill:#FFF8ED;stroke:#4E241D;stroke-width:1.5;}
	.st5{display:inline;fill:#4E241D;}
	.st6{fill:#FFF8ED;stroke:#4E241D;stroke-width:1.5;}
	.st7{fill:#4E241D;}
</style>
<g class="st0">
	<path class="st1" d="M5,0.75h30c2.35,0,4.25,1.9,4.25,4.25v30c0,2.35-1.9,4.25-4.25,4.25H5c-2.35,0-4.25-1.9-4.25-4.25V5
		C0.75,2.65,2.65,0.75,5,0.75z"/>
	<path class="st2" d="M19.16,10c0.35-0.24,0.81-0.24,1.15,0l11.62,8.18c0.8,0.56,0.4,1.82-0.58,1.82H8.11
		c-0.98,0-1.37-1.26-0.58-1.82L19.16,10z"/>
	<path class="st2" d="M11.73,15.93c0-0.55,0.45-1,1-1h14c0.55,0,1,0.45,1,1v14c0,0.55-0.45,1-1,1h-14c-0.55,0-1-0.45-1-1V15.93z"/>
	<path class="st3" d="M16.53,25c0-0.55,0.45-1,1-1h4.4c0.55,0,1,0.45,1,1v5.93h-6.4V25z"/>
</g>
<g class="st0">
	<path class="st4" d="M5,0.75h30c2.35,0,4.25,1.9,4.25,4.25v30c0,2.35-1.9,4.25-4.25,4.25H5c-2.35,0-4.25-1.9-4.25-4.25V5
		C0.75,2.65,2.65,0.75,5,0.75z"/>
	<path class="st5" d="M19.16,10c0.35-0.24,0.81-0.24,1.15,0l11.62,8.18c0.8,0.56,0.4,1.82-0.58,1.82H8.11
		c-0.98,0-1.37-1.26-0.58-1.82L19.16,10z"/>
	<path class="st5" d="M11.73,15.93c0-0.55,0.45-1,1-1h14c0.55,0,1,0.45,1,1v14c0,0.55-0.45,1-1,1h-14c-0.55,0-1-0.45-1-1V15.93z"/>
	<path class="st2" d="M16.53,25c0-0.55,0.45-1,1-1h4.4c0.55,0,1,0.45,1,1v5.93h-6.4V25z"/>
</g>
<g class="st0">
	<path class="st1" d="M5,0.75h30c2.35,0,4.25,1.9,4.25,4.25v30c0,2.35-1.9,4.25-4.25,4.25H5c-2.35,0-4.25-1.9-4.25-4.25V5
		C0.75,2.65,2.65,0.75,5,0.75z"/>
	<path class="st2" d="M30.4,29.6c0-1.37-0.27-2.72-0.79-3.98c-0.52-1.26-1.29-2.41-2.25-3.37c-0.97-0.97-2.11-1.73-3.37-2.25
		c-1.26-0.52-2.61-0.79-3.98-0.79c-1.37,0-2.72,0.27-3.98,0.79c-1.26,0.52-2.41,1.29-3.37,2.25c-0.97,0.97-1.73,2.11-2.25,3.37
		C9.87,26.88,9.6,28.23,9.6,29.6H20H30.4z"/>
	<ellipse class="st2" cx="20" cy="12" rx="4" ry="4"/>
</g>
<g>
	<path class="st6" d="M5,0.75h30c2.35,0,4.25,1.9,4.25,4.25v30c0,2.35-1.9,4.25-4.25,4.25H5c-2.35,0-4.25-1.9-4.25-4.25V5
		C0.75,2.65,2.65,0.75,5,0.75z"/>
	<path class="st7" d="M30.4,29.6c0-1.37-0.27-2.72-0.79-3.98c-0.52-1.26-1.29-2.41-2.25-3.37c-0.97-0.97-2.11-1.73-3.37-2.25
		c-1.26-0.52-2.61-0.79-3.98-0.79c-1.37,0-2.72,0.27-3.98,0.79c-1.26,0.52-2.41,1.29-3.37,2.25c-0.97,0.97-1.73,2.11-2.25,3.37
		C9.87,26.88,9.6,28.23,9.6,29.6H20H30.4z"/>
	<ellipse class="st7" cx="20" cy="12" rx="4" ry="4"/>
</g>
</svg>
